<svg width="38" height="45" viewBox="0 0 38 45" fill="none" xmlns="http://www.w3.org/2000/svg">
<path d="M34.2 11.2346H28.5V5.6173C28.5 2.52778 26.79 0 24.7 0H13.3C11.21 0 9.5 2.52778 9.5 5.6173V11.2346H3.8C1.71 11.2346 0 13.7624 0 16.8519V44.9384H38V16.8519C38 13.7624 36.29 11.2346 34.2 11.2346ZM13.3 5.6173H24.7V11.2346H13.3V5.6173ZM34.2 39.3211H3.8V30.8951H7.6V33.7038H11.4V30.8951H26.6V33.7038H30.4V30.8951H34.2V39.3211ZM30.4 25.2778V22.4692H26.6V25.2778H11.4V22.4692H7.6V25.2778H3.8V16.8519H34.2V25.2778H30.4Z" fill="#323EB3"/>
</svg>
