<svg width="38" height="69" viewBox="0 0 38 69" fill="none" xmlns="http://www.w3.org/2000/svg">
<path d="M33.5782 29.0835C26.5309 22.0455 25.9091 9.177 25.9091 6.9H20.7273V13.8H6.90909V6.9H0C0 3.105 3.10909 0 6.90909 0H31.0909V3.45C31.0909 3.726 31.2291 19.4235 37.24 25.4265L33.5782 29.0835ZM34.5455 0V6.9H38V0H34.5455ZM27.6364 34.5C20.7273 27.6 20.7273 17.25 20.7273 17.25H6.90909V24.15C6.90909 27.6 6.90909 27.6 3.45455 31.05C0 34.5 0 37.95 0 37.95V62.1C0 65.895 3.10909 69 6.90909 69H20.7273C24.5273 69 27.6364 65.895 27.6364 62.1V34.5Z" fill="black"/>
</svg>
