<svg width="39" height="24" viewBox="0 0 39 24" fill="none" xmlns="http://www.w3.org/2000/svg">
<path d="M19.5 0C21.0084 0 22.4551 0.610343 23.5217 1.69676C24.5883 2.78318 25.1875 4.25668 25.1875 5.7931C25.1875 7.32953 24.5883 8.80303 23.5217 9.88945C22.4551 10.9759 21.0084 11.5862 19.5 11.5862C17.9916 11.5862 16.5449 10.9759 15.4783 9.88945C14.4117 8.80303 13.8125 7.32953 13.8125 5.7931C13.8125 4.25668 14.4117 2.78318 15.4783 1.69676C16.5449 0.610343 17.9916 0 19.5 0ZM8.125 4.13793C9.035 4.13793 9.88 4.38621 10.6113 4.8331C10.3675 7.2 11.05 9.55035 12.4475 11.3876C11.635 12.9766 10.01 14.069 8.125 14.069C6.83207 14.069 5.59209 13.5458 4.67785 12.6146C3.76361 11.6834 3.25 10.4204 3.25 9.10345C3.25 7.78651 3.76361 6.52351 4.67785 5.5923C5.59209 4.66108 6.83207 4.13793 8.125 4.13793ZM30.875 4.13793C32.1679 4.13793 33.4079 4.66108 34.3221 5.5923C35.2364 6.52351 35.75 7.78651 35.75 9.10345C35.75 10.4204 35.2364 11.6834 34.3221 12.6146C33.4079 13.5458 32.1679 14.069 30.875 14.069C28.99 14.069 27.365 12.9766 26.5525 11.3876C27.95 9.55035 28.6325 7.2 28.3887 4.8331C29.12 4.38621 29.965 4.13793 30.875 4.13793ZM8.9375 21.1034C8.9375 17.6772 13.6663 14.8966 19.5 14.8966C25.3337 14.8966 30.0625 17.6772 30.0625 21.1034V24H8.9375V21.1034ZM0 24V21.5172C0 19.2166 3.07125 17.28 7.23125 16.7172C6.2725 17.8428 5.6875 19.3986 5.6875 21.1034V24H0ZM39 24H33.3125V21.1034C33.3125 19.3986 32.7275 17.8428 31.7687 16.7172C35.9287 17.28 39 19.2166 39 21.5172V24Z" fill="#323EB3"/>
</svg>
