<svg width="67" height="45" viewBox="0 0 67 45" fill="none" xmlns="http://www.w3.org/2000/svg">
<path d="M0 0V26.6667H6.7V20H26.8L33.5 13.3333L26.8 6.66667H6.7V0H0ZM60.3 0V6.66667H33.5L40.2 13.3333L33.5 20H60.3V26.6667H67V0H60.3ZM33.5 26.6667C33.5 26.6667 26.8 33.9 26.8 38.3333C26.8 40.1014 27.5059 41.7971 28.7624 43.0474C30.0189 44.2976 31.723 45 33.5 45C35.2769 45 36.9811 44.2976 38.2376 43.0474C39.4941 41.7971 40.2 40.1014 40.2 38.3333C40.2 33.9 33.5 26.6667 33.5 26.6667Z" fill="black"/>
</svg>
