<svg width="24" height="36" viewBox="0 0 24 36" fill="none" xmlns="http://www.w3.org/2000/svg">
<path d="M12 17.1C10.8634 17.1 9.77327 16.6259 8.96954 15.782C8.16582 14.9381 7.71429 13.7935 7.71429 12.6C7.71429 11.4065 8.16582 10.2619 8.96954 9.41802C9.77327 8.57411 10.8634 8.1 12 8.1C13.1366 8.1 14.2267 8.57411 15.0305 9.41802C15.8342 10.2619 16.2857 11.4065 16.2857 12.6C16.2857 13.1909 16.1749 13.7761 15.9595 14.3221C15.7441 14.868 15.4284 15.3641 15.0305 15.782C14.6325 16.1998 14.16 16.5313 13.6401 16.7575C13.1201 16.9836 12.5628 17.1 12 17.1ZM12 0C8.8174 0 5.76516 1.3275 3.51472 3.69045C1.26428 6.05341 0 9.25827 0 12.6C0 22.05 12 36 12 36C12 36 24 22.05 24 12.6C24 9.25827 22.7357 6.05341 20.4853 3.69045C18.2348 1.3275 15.1826 0 12 0Z" fill="#323EB3"/>
</svg>
