<svg width="30" height="43" viewBox="0 0 30 43" fill="none" xmlns="http://www.w3.org/2000/svg">
<path d="M29.9144 38.6981L24.046 29.4736C24.6185 27.2237 24.3323 24.2988 23.0441 22.4989C21.7559 20.474 19.8952 20.024 18.3208 21.149L21.0403 25.4238L19.0364 28.5736L16.1738 24.0738C15.4582 26.5487 15.7444 29.4736 17.0326 31.7235C18.3208 33.7484 20.0384 34.1983 21.4697 33.2984L27.338 42.5229C27.6243 42.9729 28.0537 42.9729 28.1968 42.5229L29.6281 40.273C30.0575 39.5981 30.0575 38.9231 29.9144 38.6981ZM15.7444 35.9982H0V31.4985C0 26.5487 5.15272 22.4989 11.4505 22.4989C12.1661 22.4989 12.8818 22.4989 13.4543 22.7239C13.0249 24.0738 12.8818 25.4238 12.8818 26.9987C12.8818 30.5985 14.0268 33.9733 15.7444 35.9982ZM11.4505 0C8.3016 0 5.72524 4.0498 5.72524 8.99956C5.72524 13.9493 8.3016 17.9991 11.4505 17.9991C14.5994 17.9991 17.1757 13.9493 17.1757 8.99956C17.1757 4.0498 14.5994 0 11.4505 0Z" fill="#323EB3"/>
</svg>
