<svg width="38" height="48" viewBox="0 0 38 48" fill="none" xmlns="http://www.w3.org/2000/svg">
<path d="M34.2 11.9057H28.5V5.95284C28.5 2.67878 26.79 0 24.7 0H13.3C11.21 0 9.5 2.67878 9.5 5.95284V11.9057H3.8C1.71 11.9057 0 14.5844 0 17.8585V47.6227H38V17.8585C38 14.5844 36.29 11.9057 34.2 11.9057ZM13.3 5.95284H24.7V11.9057H13.3V5.95284ZM34.2 41.6698H3.8V32.7406H7.6V35.717H11.4V32.7406H26.6V35.717H30.4V32.7406H34.2V41.6698ZM30.4 26.7878V23.8113H26.6V26.7878H11.4V23.8113H7.6V26.7878H3.8V17.8585H34.2V26.7878H30.4Z" fill="#323EB3"/>
</svg>
