<svg width="30" height="41" viewBox="0 0 30 41" fill="none" xmlns="http://www.w3.org/2000/svg">
<path d="M29.9144 36.5169L24.046 27.8123C24.6185 25.6892 24.3323 22.9292 23.0441 21.2307C21.7559 19.32 19.8952 18.8954 18.3208 19.9569L21.0403 23.9907L19.0364 26.963L16.1738 22.7169C15.4582 25.0523 15.7444 27.8123 17.0326 29.9353C18.3208 31.8461 20.0384 32.2707 21.4697 31.4215L27.338 40.1261C27.6243 40.5507 28.0537 40.5507 28.1968 40.1261L29.6281 38.003C30.0575 37.3661 30.0575 36.7292 29.9144 36.5169ZM15.7444 33.9692H0V29.723C0 25.0523 5.15272 21.2307 11.4505 21.2307C12.1661 21.2307 12.8818 21.2307 13.4543 21.443C13.0249 22.7169 12.8818 23.9907 12.8818 25.4769C12.8818 28.8738 14.0268 32.0584 15.7444 33.9692ZM11.4505 0C8.3016 0 5.72524 3.82153 5.72524 8.4923C5.72524 13.1631 8.3016 16.9846 11.4505 16.9846C14.5994 16.9846 17.1757 13.1631 17.1757 8.4923C17.1757 3.82153 14.5994 0 11.4505 0Z" fill="#323EB3"/>
</svg>
